<svg width="1453" height="312" xmlns="http://www.w3.org/2000/svg" xmlns:xlink="http://www.w3.org/1999/xlink" xml:space="preserve" overflow="hidden"><defs><clipPath id="clip0"><rect x="939" y="980" width="1453" height="312"/></clipPath><clipPath id="clip1"><rect x="939" y="980" width="1453" height="312"/></clipPath><clipPath id="clip2"><rect x="941" y="982" width="255" height="254"/></clipPath><clipPath id="clip3"><rect x="941" y="982" width="255" height="254"/></clipPath></defs><g clip-path="url(#clip0)" transform="translate(-939 -980)"><g clip-path="url(#clip1)"><path d="M942 1024.17C942 1000.88 960.879 982 984.167 982L1153.83 982C1177.12 982 1196 1000.88 1196 1024.17L1196 1192.83C1196 1216.12 1177.12 1235 1153.83 1235L984.167 1235C960.879 1235 942 1216.12 942 1192.83Z" fill="#163E64" fill-rule="evenodd" fill-opacity="1"/><path d="M955 1108.5C955 1045.26 1006.26 994 1069.5 994 1132.74 994 1184 1045.26 1184 1108.5 1184 1171.74 1132.74 1223 1069.5 1223 1006.26 1223 955 1171.74 955 1108.5Z" fill="#FFFFFF" fill-rule="evenodd" fill-opacity="1"/><g clip-path="url(#clip2)"><g clip-path="url(#clip3)"><g><path d="M376.031 157.886 372.056 157.886C369.611 139.772 358.122 124.146 341.563 116.408 338.134 101.517 331.43 83.3757 319.024 83.3757 306.369 83.3757 299.642 102.252 296.278 117.301 286.986 121.969 278.664 128.355 271.75 136.123L248.052 159.095 218.941 188.207C211.536 195.653 201.46 199.826 190.959 199.797L105.534 199.797 83.0525 177.314C75.6825 170.274 64.0799 170.274 56.71 177.314 49.4364 184.583 49.4332 196.373 56.7025 203.646 56.7049 203.649 56.7077 203.652 56.71 203.654L79.1938 226.138 79.1938 274.732 79.1892 274.755 79.1892 325.981C79.1887 326.482 79.2693 326.979 79.4281 327.454L85.5584 345.841C88.0852 353.453 95.2079 358.587 103.228 358.579L116.442 358.579C126.721 358.568 135.053 350.242 135.069 339.963L135.069 337.164C135.071 329.137 129.069 322.378 121.099 321.431L121.099 309.282 132.343 298.04 218.895 298.04 218.895 325.981C218.895 326.482 218.975 326.979 219.134 327.454L225.265 345.841C227.793 353.453 234.916 358.587 242.937 358.579L256.15 358.579C266.429 358.565 274.76 350.238 274.778 339.959L274.778 337.164C274.781 329.137 268.778 322.377 260.807 321.429L260.807 295.525 284.094 275.533 284.094 297.583 284.091 297.594 284.091 325.981C284.091 328.553 286.176 330.638 288.748 330.638L291.543 330.638C295.143 330.638 298.062 333.557 298.062 337.158L298.06 339.957C298.05 345.096 293.885 349.259 288.746 349.266L280.192 349.266C277.62 349.266 275.535 351.351 275.535 353.923 275.535 356.495 277.62 358.58 280.192 358.58L288.748 358.58C299.026 358.566 307.356 350.241 307.376 339.963L307.378 337.164C307.378 329.139 301.377 322.381 293.408 321.431L293.408 297.592 293.41 297.592 293.41 268.734C293.432 248.674 309.688 232.418 329.748 232.396L351.725 232.396C378.66 232.365 400.487 210.538 400.518 183.603L400.518 182.373C400.503 168.855 389.548 157.901 376.031 157.886ZM253.119 289.849C252.089 290.734 251.496 292.025 251.496 293.383L251.496 325.981C251.496 328.553 253.581 330.638 256.153 330.638L258.947 330.638C262.547 330.639 265.465 333.56 265.464 337.16 265.464 337.161 265.464 337.161 265.464 337.162L265.464 339.956C265.454 345.095 261.289 349.258 256.15 349.265L242.937 349.265C238.926 349.269 235.365 346.702 234.101 342.896L228.21 325.226 228.21 293.383C228.21 290.811 226.125 288.726 223.553 288.726L130.415 288.726C129.181 288.733 127.999 289.223 127.121 290.091L113.151 304.062C112.278 304.935 111.787 306.119 111.786 307.354L111.786 325.982C111.786 328.554 113.871 330.639 116.443 330.639L119.237 330.639C122.838 330.639 125.757 333.558 125.757 337.158L125.757 339.958C125.749 345.097 121.583 349.261 116.443 349.267L103.228 349.267C99.2184 349.271 95.6573 346.704 94.3943 342.898L88.5029 325.228 88.5029 297.615 88.5076 297.592 88.5076 224.21C88.5001 222.976 88.0097 221.793 87.1417 220.916L63.2948 197.069C59.6587 193.435 59.6564 187.542 63.2901 183.905 63.2925 183.903 63.2948 183.901 63.2971 183.898 66.9807 180.379 72.7813 180.379 76.4649 183.898L100.312 207.746C101.189 208.614 102.372 209.105 103.606 209.111L190.959 209.111C203.931 209.148 216.379 203.991 225.526 194.793L229.225 191.093 288.152 250.023C286.307 254.111 285.081 258.45 284.512 262.899ZM293.029 241.727 235.81 184.508 243.195 177.123 300.132 234.06C297.48 236.337 295.096 238.909 293.027 241.727ZM391.204 183.603C391.179 205.396 373.518 223.057 351.725 223.082L329.748 223.082C322.113 223.074 314.6 224.993 307.904 228.662L249.78 170.535 254.586 165.729 278.357 142.677C283.027 137.516 288.314 132.948 294.097 129.075 293.784 131.209 293.566 132.954 293.44 134.077 293.12 136.629 294.929 138.957 297.481 139.277 300.033 139.597 302.361 137.788 302.681 135.236 302.686 135.197 302.691 135.158 302.694 135.119 304.705 117.329 311.496 92.6862 319.023 92.6862 326.551 92.6862 333.342 117.33 335.352 135.119 335.616 137.472 337.605 139.251 339.972 139.255 340.149 139.255 340.325 139.246 340.5 139.226 343.055 138.938 344.893 136.633 344.606 134.077 344.466 132.843 344.212 130.832 343.844 128.398 355.296 136.205 362.438 148.917 363.15 162.758L363.359 167.196 376.031 167.196C384.408 167.205 391.195 173.993 391.205 182.37Z" fill="#163E64" fill-rule="nonzero" fill-opacity="1" transform="matrix(1.00395 0 0 1 747.173 955.221)"/><path d="M153.699 321.431 153.699 307.354C153.699 304.782 151.614 302.697 149.042 302.697 146.47 302.697 144.385 304.782 144.385 307.354L144.385 325.981C144.385 328.553 146.47 330.638 149.042 330.638L151.836 330.638C155.437 330.638 158.356 333.557 158.356 337.158L158.354 339.957C158.346 345.096 154.18 349.26 149.04 349.266L140.483 349.266C137.911 349.266 135.827 351.351 135.827 353.923 135.827 356.495 137.911 358.58 140.483 358.58L149.04 358.58C159.319 358.569 167.651 350.242 167.667 339.963L167.67 337.169C167.673 329.142 161.67 322.381 153.699 321.434Z" fill="#163E64" fill-rule="nonzero" fill-opacity="1" transform="matrix(1.00395 0 0 1 747.173 955.221)"/><path d="M353.94 160.662C353.94 164.52 350.812 167.647 346.955 167.647 343.097 167.647 339.969 164.52 339.969 160.662 339.969 156.804 343.097 153.677 346.955 153.677 350.812 153.677 353.94 156.804 353.94 160.662Z" fill="#163E64" fill-rule="nonzero" fill-opacity="1" transform="matrix(1.00395 0 0 1 747.173 955.221)"/></g></g></g><text fill="#0E2841" fill-opacity="1" font-family="BM JUA OTF,BM JUA OTF_MSFontService,sans-serif" font-style="normal" font-variant="normal" font-weight="400" font-stretch="normal" font-size="147" text-anchor="start" direction="ltr" writing-mode="lr-tb" unicode-bidi="normal" text-decoration="none" transform="matrix(1 0 0 1 1266.25 1151)">JunHyung’s</text><text fill="#0E2841" fill-opacity="1" font-family="BM JUA OTF,BM JUA OTF_MSFontService,sans-serif" font-style="normal" font-variant="normal" font-weight="400" font-stretch="normal" font-size="147" text-anchor="start" direction="ltr" writing-mode="lr-tb" unicode-bidi="normal" text-decoration="none" transform="matrix(1 0 0 1 2036.25 1151)">Blog</text></g></g></svg>